<?xml version="1.0" encoding="UTF-8" standalone="no"?>
<svg
   viewBox="0 0 32 32"
   version="1.1"
   id="svg7"
   sodipodi:docname="humidity.svg"
   inkscape:version="1.1.2 (b8e25be833, 2022-02-05)"
   xmlns:inkscape="http://www.inkscape.org/namespaces/inkscape"
   xmlns:sodipodi="http://sodipodi.sourceforge.net/DTD/sodipodi-0.dtd"
   xmlns="http://www.w3.org/2000/svg"
   xmlns:svg="http://www.w3.org/2000/svg">
  <defs
     id="defs11" />
  <sodipodi:namedview
     id="namedview9"
     pagecolor="#ffffff"
     bordercolor="#666666"
     borderopacity="1.0"
     inkscape:pageshadow="2"
     inkscape:pageopacity="0.0"
     inkscape:pagecheckerboard="0"
     showgrid="false"
     inkscape:zoom="25.71875"
     inkscape:cx="16"
     inkscape:cy="16.019441"
     inkscape:window-width="1920"
     inkscape:window-height="1009"
     inkscape:window-x="-8"
     inkscape:window-y="-8"
     inkscape:window-maximized="1"
     inkscape:current-layer="svg7" />
  <title
     id="title2" />
  <g
     data-name="blood drop"
     id="blood_drop"
     style="fill:#ffffff;fill-opacity:1">
    <path
       d="M16.67,1.25a1,1,0,0,0-1.34,0C14.91,1.63,5,10.6,5,20a11,11,0,0,0,22,0C27,10.6,17.09,1.63,16.67,1.25Zm2.72,25.66a8.1,8.1,0,0,1-3.39.75,1,1,0,1,1,0-2,5.86,5.86,0,0,0,2.54-.57,1,1,0,0,1,.85,1.82Zm2.45-1.79a1,1,0,0,1-1.41.05,1,1,0,0,1-.05-1.41A6,6,0,0,0,22,19.66a1,1,0,1,1,2,0A8,8,0,0,1,21.84,25.12Z"
       id="path4"
       style="fill:#ffffff;fill-opacity:1" />
  </g>
</svg>
