<?xml version="1.0" encoding="UTF-8" standalone="no"?>
<!-- Generator: Adobe Illustrator 19.0.0, SVG Export Plug-In . SVG Version: 6.00 Build 0)  -->

<svg
   version="1.1"
   id="Layer_1"
   x="0px"
   y="0px"
   viewBox="0 0 512.001 512.001"
   style="enable-background:new 0 0 512.001 512.001;"
   xml:space="preserve"
   sodipodi:docname="wind.svg"
   inkscape:version="1.1.2 (b8e25be833, 2022-02-05)"
   xmlns:inkscape="http://www.inkscape.org/namespaces/inkscape"
   xmlns:sodipodi="http://sodipodi.sourceforge.net/DTD/sodipodi-0.dtd"
   xmlns="http://www.w3.org/2000/svg"
   xmlns:svg="http://www.w3.org/2000/svg"><defs
   id="defs53" /><sodipodi:namedview
   id="namedview51"
   pagecolor="#ffffff"
   bordercolor="#666666"
   borderopacity="1.0"
   inkscape:pageshadow="2"
   inkscape:pageopacity="0.0"
   inkscape:pagecheckerboard="0"
   showgrid="false"
   inkscape:zoom="0.8037094"
   inkscape:cx="14.308654"
   inkscape:cy="130.64423"
   inkscape:window-width="1920"
   inkscape:window-height="1009"
   inkscape:window-x="-8"
   inkscape:window-y="-8"
   inkscape:window-maximized="1"
   inkscape:current-layer="Layer_1" />
<g
   id="g6"
   style="fill:#ffffff;fill-opacity:1">
	<g
   id="g4"
   style="fill:#ffffff;fill-opacity:1">
		<path
   d="M280.503,66.696c-26.499-26.341-69.487-26.214-95.828,0.284c-8.054,8.102-8.015,21.198,0.086,29.251    c8.102,8.055,21.199,8.015,29.251-0.086c10.26-10.321,27.005-10.371,37.326-0.111c10.321,10.26,10.371,27.005,0.11,37.326    c-4.923,4.952-11.739,7.786-18.806,7.786c-0.036,0-0.074,0-0.11,0H20.684C9.261,141.146,0,150.407,0,161.83    c0,11.423,9.261,20.684,20.684,20.684h211.762c0.094,0,0.185,0,0.279,0c17.92,0,35.424-7.276,48.063-19.989    C307.128,136.027,307.001,93.039,280.503,66.696z"
   id="path2"
   style="fill:#ffffff;fill-opacity:1" />
	</g>
</g>
<g
   id="g12"
   style="fill:#ffffff;fill-opacity:1">
	<g
   id="g10"
   style="fill:#ffffff;fill-opacity:1">
		<path
   d="M351.403,349.445c-12.637-12.714-30.141-19.99-47.977-19.99c-0.093,0-0.185,0.001-0.277,0.001H20.684    C9.261,329.456,0,338.716,0,350.14s9.261,20.684,20.684,20.684h282.551c0.036,0,0.072,0,0.108,0    c6.981,0,13.799,2.834,18.721,7.786c10.26,10.321,10.211,27.066-0.11,37.326c-4.982,4.951-11.586,7.675-18.605,7.675    c-0.027,0-0.054,0-0.081,0c-7.05-0.021-13.67-2.786-18.639-7.785c-8.053-8.103-21.15-8.14-29.25-0.087    c-8.102,8.053-8.141,21.149-0.087,29.25c12.76,12.837,29.756,19.935,47.855,19.989c0.071,0,0.138,0,0.207,0    c18.022,0,34.979-6.993,47.768-19.705C377.618,418.931,377.744,375.942,351.403,349.445z"
   id="path8"
   style="fill:#ffffff;fill-opacity:1" />
	</g>
</g>
<g
   id="g18"
   style="fill:#ffffff;fill-opacity:1">
	<g
   id="g16"
   style="fill:#ffffff;fill-opacity:1">
		<path
   d="M488.816,140.973c-15.003-15.04-34.965-23.339-56.207-23.365c-0.035,0-0.069,0-0.104,0    c-21.205,0-41.147,8.246-56.162,23.223c-8.088,8.068-8.104,21.164-0.037,29.251c8.068,8.09,21.163,8.102,29.251,0.038    c7.205-7.188,16.774-11.143,26.95-11.143c0.017,0,0.033,0,0.05,0c10.194,0.013,19.773,3.994,26.972,11.212    c14.861,14.899,14.83,39.11-0.068,53.971c-7.186,7.168-16.734,11.125-26.846,11.143H20.684C9.261,235.302,0,244.562,0,255.985    c0,11.424,9.261,20.684,20.684,20.684H432.65c21.151-0.038,41.047-8.285,56.024-23.224    C519.721,222.476,519.784,172.02,488.816,140.973z"
   id="path14"
   style="fill:#ffffff;fill-opacity:1" />
	</g>
</g>
<g
   id="g20">
</g>
<g
   id="g22">
</g>
<g
   id="g24">
</g>
<g
   id="g26">
</g>
<g
   id="g28">
</g>
<g
   id="g30">
</g>
<g
   id="g32">
</g>
<g
   id="g34">
</g>
<g
   id="g36">
</g>
<g
   id="g38">
</g>
<g
   id="g40">
</g>
<g
   id="g42">
</g>
<g
   id="g44">
</g>
<g
   id="g46">
</g>
<g
   id="g48">
</g>
</svg>
